<svg xmlns="http://www.w3.org/2000/svg" width="512" height="512"><path fill="#BFE7F3" d="m349 40 1.693 1.218C359.373 47.532 367.27 54.568 375 62l1.657 1.575C384.931 71.462 392.3 79.735 399 89l1.448 2.002C428.16 129.839 444.488 178.972 442 227l-.125 2.447C439.3 275.847 424.12 318.927 396 356c5.057 6.044 10.391 11.779 15.875 17.438l2.605 2.794c4.271 4.684 4.271 4.684 9.83 7.312 2.381.004 2.381.004 5.69-.544 3 1.438 3 1.438 5 4-.053 1.938-.053 1.938-.317 4.16-.072 3.978.612 5.82 3.24 8.805a177 177 0 0 0 4.145 4.03l2.276 2.25c2.48 2.444 4.99 4.854 7.5 7.267q2.592 2.545 5.179 5.097c4.538 4.47 9.1 8.916 13.671 13.354q10.98 10.662 21.888 21.4c2.546 2.496 5.111 4.973 7.678 7.448l4.672 4.582 2.181 2.074c4.765 4.73 4.765 4.73 5.397 8.89-.569 2.946-1.179 4.094-3.24 6.24l-1.94 2.052L505 487l-2.795 2.87a869 869 0 0 1-7.877 7.932q-2.485 2.48-4.963 4.97l-3.166 3.162-1.493 1.499c-2.773 2.754-4.473 4.333-8.355 5.07-5.129-.77-7.483-3.899-10.974-7.555-.739-.75-1.478-1.5-2.24-2.271a855 855 0 0 1-4.787-4.907 1141 1141 0 0 0-7.594-7.75 4969 4969 0 0 1-18.862-19.257 3631 3631 0 0 0-15.95-16.25c-2.499-2.54-4.975-5.1-7.452-7.66a4626 4626 0 0 0-4.61-4.671l-2.067-2.171c-4.604-4.597-7.342-5.68-13.815-6.011-2.5-2.187-2.5-2.187-4-5l.275-2.77c-.402-4.717-2.85-6.565-6.181-9.722l-1.816-1.79a710 710 0 0 0-5.778-5.593 2534 2534 0 0 1-3.902-3.82A1469 1469 0 0 0 357 396c-7.213 4.54-7.213 4.54-14.328 9.23C308.217 428.308 268.358 440.575 227 442l-3.035.125c-56.735 1.196-112.884-20.392-154.07-59.324L67 380c-.525-.5-1.05-1-1.592-1.514-7.77-7.4-14.714-15.144-21.117-23.755a380 380 0 0 0-3.775-4.954C22.417 325.885 10.674 297.053 4 268l-.68-2.954C-2.64 237.65-2.898 205.425 3 178l.602-2.875C6.737 160.563 11.16 146.697 17 133l1.042-2.448C41.096 77.384 86.142 35.918 139.45 14.16 151.971 9.224 164.847 5.797 178 3l2.536-.548C238.096-9.3 301.7 5.958 349 40"/><path fill="#EB7462" d="m312 142 2.117 1.688C332.104 158.397 344.126 180.868 350 203l.93 3.457c7.587 29.301 1.825 61.3-12.93 87.543-2.485 4.13-5.172 8.097-8 12 1.604 4.005 4.421 6.677 7.445 9.64l1.606 1.598q2.532 2.511 5.074 5.012l3.441 3.414q4.21 4.176 8.434 8.336a56.5 56.5 0 0 0 7-4c2.32-.465 2.32-.465 5 0a57 57 0 0 1 5.895 5.441l1.67 1.699a731 731 0 0 1 5.248 5.423q3.441 3.538 6.894 7.066l1.684 1.73a153 153 0 0 0 10.666 9.9c2.402 2.153 4.598 4.458 6.818 6.8.84.88 1.68 1.76 2.547 2.666a508 508 0 0 1 5.156 5.507c4.213 4.683 4.213 4.683 9.723 7.312 2.384.004 2.384.004 5.699-.544 3 1.438 3 1.438 5 4-.053 1.938-.053 1.938-.317 4.16-.072 3.978.612 5.82 3.24 8.805a177 177 0 0 0 4.145 4.03l2.276 2.25c2.48 2.444 4.99 4.854 7.5 7.267q2.592 2.545 5.179 5.097c4.538 4.47 9.1 8.916 13.671 13.354q10.98 10.662 21.888 21.4c2.546 2.496 5.111 4.973 7.678 7.448l4.672 4.582 2.181 2.074c4.765 4.73 4.765 4.73 5.397 8.89-.569 2.946-1.179 4.094-3.24 6.24l-1.94 2.052L505 487l-2.795 2.87a869 869 0 0 1-7.877 7.932q-2.485 2.48-4.963 4.97l-3.166 3.162-1.493 1.499c-2.773 2.754-4.473 4.333-8.355 5.07-5.129-.77-7.483-3.899-10.974-7.555-.739-.75-1.478-1.5-2.24-2.271a855 855 0 0 1-4.787-4.907 1141 1141 0 0 0-7.594-7.75 4969 4969 0 0 1-18.862-19.257 3631 3631 0 0 0-15.95-16.25c-2.499-2.54-4.975-5.1-7.452-7.66a4626 4626 0 0 0-4.61-4.671l-2.067-2.171c-4.604-4.597-7.342-5.68-13.815-6.011-2.5-2.187-2.5-2.187-4-5l.26-2.788c-.364-4.5-2.786-6.476-5.92-9.423l-1.766-1.733a656 656 0 0 0-5.637-5.431c-2.454-2.378-4.9-4.763-7.347-7.148l-1.796-1.741a150 150 0 0 1-10.07-10.796c-2.154-2.424-4.454-4.663-6.783-6.92l-2.666-2.588a928 928 0 0 0-5.507-5.274l-2.64-2.576-2.403-2.305C330 368 330 368 329.613 365.343c.518-3.135 2.186-4.142 4.387-6.343-.078-4.401-3.621-6.998-6.566-9.86l-1.678-1.664a1224 1224 0 0 0-5.318-5.226l-3.6-3.559Q312.429 334.335 308 330c-4.01 1.541-7.383 3.417-11 5.75-26.172 16.336-57.665 21.959-88 16.25-22.615-5.267-42.267-15.962-59-32l-2.625-2.5L145 315l-1.758-1.809c-21.937-23.443-31.163-55.702-30.488-87.273C113.77 199.85 125.364 174.719 142 155l1.797-2.254c4.712-5.733 10.339-10.235 16.203-14.746l2.262-1.773C176.339 125.76 192.055 119.142 209 115l3.223-.805c35.088-7.205 72.76 5.53 99.777 27.805"/><path fill="#BFE7F3" d="M69 59c8.38 5.986 16.706 12.706 24 20 .097 1.774.132 3.551.14 5.328.1 16.086.1 16.086 4.762 31.27C99.474 119.037 99.69 121.28 99 125c-.7 1.555-1.434 3.095-2.187 4.625-7.236 14.926-9.539 31.148-6.126 47.25l.45 2.202C92.326 184.081 93.99 186.59 98 190l3.664 3.262q1.978 1.716 3.961 3.425l2.023 1.76c2.727 2.359 5.346 4.549 8.352 6.553l-.437 2.797c-4.818 33.854.848 68.143 21.117 96.25 3.034 3.861 6.272 7.481 9.668 11.027C148 317 148 317 148 319l1.758.777c2.45 1.336 4.11 2.852 6.117 4.786 22.152 19.95 51.98 29.26 81.457 28.683C262.28 351.572 285.827 343.95 306 329c4.055 1.627 6.843 4.503 9.895 7.523l1.671 1.645q1.74 1.717 3.472 3.444a691 691 0 0 0 5.358 5.247q1.689 1.674 3.374 3.352l1.634 1.575c1.478 1.497 1.478 1.497 3.596 4.214-.075 2.272-.075 2.272-1 4l-1.562 1.438c-1.623 1.492-1.623 1.492-1.883 3.774.656 4.112 3.237 6.2 6.132 8.964l1.75 1.727a795 795 0 0 0 5.563 5.41 2832 2832 0 0 1 3.758 3.689Q352.36 389.52 357 394c-31.893 32.672-85.63 46.472-130 48l-3.035.125c-56.735 1.196-112.884-20.392-154.07-59.324L67 380c-.525-.5-1.05-1-1.592-1.514-7.77-7.4-14.714-15.144-21.117-23.755a380 380 0 0 0-3.775-4.954C22.417 325.885 10.674 297.053 4 268l-.68-2.954C-2.64 237.65-2.898 205.425 3 178l.602-2.875C6.737 160.563 11.16 146.697 17 133l1.042-2.448C29.807 103.42 47.725 79.428 69 59"/><path fill="#BFE7F3" d="m258 145 3.469 1.031c24.622 8.062 42.97 24.947 54.996 47.746 9.522 19.71 11.867 43.184 5.535 64.223l-1.031 3.469C313.365 284.692 297.58 303.453 276 315c-23.903 11.596-49.15 13.516-74.293 4.867-24.216-9.46-42.11-27.07-52.957-50.555-9.309-23.068-9.489-47.457-.437-70.625C158.65 175.65 175.708 157.983 199 148c18.878-6.916 39.56-8.85 59-3"/><path fill="#76D3BD" d="M209 10c6.112.762 12.03 5.438 16 10 3.483 6.01 6.075 14.11 5 21-2.176 2.316-2.176 2.316-5.312 4.563l-1.713 1.248A333 333 0 0 1 217 51l-2.4 1.659a1131 1131 0 0 1-10.062 6.874 419 419 0 0 0-4.557 3.113c-1.63 1.115-3.306 2.162-4.993 3.19-3.068 3.34-2.861 6.516-2.8 10.914l.012 2.538c.373 9.191 4.176 15.977 8.8 23.712l1.219 3.332c2.006 3.005 2.442 3.153 5.793 3.91q2.332.356 4.676.633l2.416.352c1.962.282 3.929.53 5.896.773v2l-2.867.445C194.458 118.355 173.423 127.53 155 143l-2.031 1.574c-5.505 4.366-9.696 9.891-13.969 15.426l-1.777 2.266C127.687 175.099 121.038 189.592 117 205c-3.912-.563-5.804-2.384-8.625-5.062A111 111 0 0 0 97.563 191c-4.834-3.827-6.42-7.036-7.563-13l-.605-2.406c-3.867-16.4.319-33.578 7.648-48.469 1.52-3.376 1.588-5.467.957-9.125q-1.216-2.658-2.437-5.312c-2.976-7.007-2.775-13.399-2.75-20.938.077-8.392.077-8.392-2.7-16.113-2.579-2.28-5.128-3.93-8.113-5.637a231 231 0 0 1-6.125-4.812l-2.82-2.145L71 61c0-4 0-4 2.5-6.629q1.732-1.488 3.5-2.934l1.905-1.589c14.718-12.072 31.122-22.205 48.283-30.41l2.105-1.015C133.184 16.62 136.736 15.484 141 15l1 2.28c2.76 3.754 5.718 4.675 10.008 6.236.799.3 1.598.602 2.42.913q2.546.95 5.1 1.875c2.55.93 5.083 1.9 7.617 2.876C177.874 33.19 187.542 35.07 199 35l-.016-2.42c.05-9.037 3.597-16.161 10.016-22.58"/><path fill="#4B586D" d="M328 307c6.366 5.245 12.136 11.021 17.938 16.875l2.939 2.953q3.565 3.583 7.123 7.172a56.5 56.5 0 0 0 7-4c2.32-.465 2.32-.465 5 0a57 57 0 0 1 5.895 5.441l1.67 1.699a731 731 0 0 1 5.248 5.423q3.441 3.538 6.894 7.066l1.684 1.73a153 153 0 0 0 10.666 9.9c2.402 2.153 4.598 4.458 6.818 6.8l2.547 2.666a508 508 0 0 1 5.156 5.507c4.213 4.683 4.213 4.683 9.723 7.312 2.384.004 2.384.004 5.699-.544 3 1.438 3 1.438 5 4-.053 1.938-.053 1.938-.317 4.16-.072 3.978.612 5.82 3.24 8.805a177 177 0 0 0 4.145 4.03l2.276 2.25c2.48 2.444 4.99 4.854 7.5 7.267q2.592 2.545 5.179 5.097c4.538 4.47 9.1 8.916 13.671 13.354q10.98 10.662 21.888 21.4c2.546 2.496 5.111 4.973 7.678 7.448l4.672 4.582 2.181 2.074c4.765 4.73 4.765 4.73 5.397 8.89-.569 2.946-1.179 4.094-3.24 6.24l-1.94 2.052L505 487l-2.795 2.87a869 869 0 0 1-7.877 7.932q-2.485 2.48-4.963 4.97l-3.166 3.162-1.493 1.499c-2.773 2.754-4.473 4.333-8.355 5.07-5.129-.77-7.483-3.899-10.974-7.555-1.108-1.125-1.108-1.125-2.24-2.271a855 855 0 0 1-4.787-4.907 1141 1141 0 0 0-7.594-7.75 4969 4969 0 0 1-18.862-19.257 3631 3631 0 0 0-15.95-16.25c-2.499-2.54-4.975-5.1-7.452-7.66a4626 4626 0 0 0-4.61-4.671l-2.067-2.171c-4.604-4.597-7.342-5.68-13.815-6.011-2.5-2.187-2.5-2.187-4-5l.26-2.788c-.364-4.5-2.786-6.476-5.92-9.423l-1.766-1.733a656 656 0 0 0-5.637-5.431c-2.454-2.378-4.9-4.763-7.347-7.148l-1.796-1.741a150 150 0 0 1-10.07-10.796c-2.154-2.424-4.454-4.663-6.783-6.92l-2.666-2.588a928 928 0 0 0-5.507-5.274l-2.64-2.576-2.403-2.305C330 368 330 368 329.613 365.343c.518-3.135 2.186-4.142 4.387-6.343-.523-4.566-3.643-7.022-6.785-10.078l-1.745-1.732c-1.837-1.82-3.685-3.63-5.533-5.44l-3.744-3.703A2741 2741 0 0 0 307 329l2.332-2.324q2.707-2.716 5.356-5.488C317 319 317 319 319 319l.773-1.734c1.358-2.508 2.947-4.399 4.852-6.516l1.914-2.14z"/><path fill="#5BB6D5" d="m258 145 3.469 1.031c24.622 8.062 42.97 24.947 54.996 47.746 9.522 19.71 11.867 43.184 5.535 64.223l-1.031 3.469C313.365 284.692 297.58 303.453 276 315c-23.903 11.596-49.15 13.516-74.293 4.867-24.216-9.46-42.11-27.07-52.957-50.555-9.309-23.068-9.489-47.457-.437-70.625C158.65 175.65 175.708 157.983 199 148c18.878-6.916 39.56-8.85 59-3m-79.016 43.14c-12.64 14.918-17.28 33.359-16.191 52.556 1.398 15.563 8.89 29.829 19.207 41.304l1.605 1.887c10.793 11.858 28.31 19.616 44.27 20.484 19.117.458 36.599-3.814 51.375-16.683A269 269 0 0 0 284 283l2.371-2.305c14.319-14.729 18.096-32.913 17.844-52.738-.181-5.974-1.21-11.325-3.215-16.957l-1.031-3.004c-2.863-7.572-6.953-13.683-11.969-19.996l-1.953-2.566c-10.308-12.256-28.545-21.174-44.41-22.654-25.762-1.197-45.12 6.74-62.653 25.36"/><path fill="#F9CF6A" d="M306 329c4.055 1.627 6.843 4.503 9.895 7.523l1.671 1.645q1.74 1.717 3.472 3.444a691 691 0 0 0 5.358 5.247q1.689 1.674 3.374 3.352l1.634 1.575c1.478 1.497 1.478 1.497 3.596 4.214-.075 2.272-.075 2.272-1 4l-1.562 1.438c-1.623 1.492-1.623 1.492-1.883 3.774.656 4.112 3.237 6.2 6.132 8.964l1.75 1.727a795 795 0 0 0 5.563 5.41 2832 2832 0 0 1 3.758 3.689Q352.36 389.52 357 394c-31.76 32.537-84.88 46.061-129 48q-1.013-4.028-2-8.062l-.578-2.28c-1.436-5.921-2.722-11.785.14-17.47C227.924 408.512 226.9 402.7 225 397c-.22-2.763-.396-5.514-.543-8.281q-.157-2.495-.318-4.989c-.168-2.62-.327-5.238-.46-7.86a437 437 0 0 0-.472-7.589l-.095-2.377c-.129-2.489-.129-2.489-1.112-5.904-4.023-2.71-8.403-3.803-13.047-5.059-2.48-1.195-2.98-2.422-3.953-4.941l2.781.402q3.812.549 7.625 1.086c1.94.276 3.878.558 5.813.867 27.856 4.216 59.145-5.011 81.824-21.164z"/><path fill="#5BB7D6" d="M374 62c39.655 33.181 62.232 86.62 66.987 137.36.772 9.205 1.492 18.404 1.013 27.64l-.125 2.447C439.28 276.203 423.97 320.053 395 357a317 317 0 0 1-3.125-2.562l-1.758-1.442c-2.956-2.787-5.517-5.878-8.117-8.996l1.906-2.937C396.265 321.804 405.981 301.14 412 279l1.02-3.645c4.739-17.48 6.486-34.817 6.371-52.9-.016-3.02 0-6.036.02-9.055.02-16.961-2.064-32.976-6.599-49.338l-.91-3.32C404.003 132.81 389.824 100.825 369 80c.407-6.258 2.654-12.242 5-18"/><path fill="#4A586D" d="M328 307c6.366 5.245 12.136 11.021 17.938 16.875l2.939 2.953q3.565 3.583 7.123 7.172a56.5 56.5 0 0 0 7-4c2.32-.465 2.32-.465 5 0a57 57 0 0 1 5.895 5.441l1.67 1.699a731 731 0 0 1 5.248 5.423q3.441 3.538 6.894 7.066l1.671 1.716c3.542 3.618 7.185 7.045 11.05 10.32 3.045 2.587 5.779 5.484 8.572 8.335-4.306 5.148-8.823 9.958-13.586 14.684l-2.127 2.122q-3.328 3.318-6.662 6.632l-4.543 4.529Q376.545 403.487 371 409l-3.377-2.885-1.9-1.623c-4.278-3.703-8.138-7.766-11.79-12.082-2.86-3.288-5.863-6.357-8.992-9.39l-2.666-2.588a928 928 0 0 0-5.507-5.274l-2.64-2.576-2.403-2.305C330 368 330 368 329.613 365.343c.518-3.135 2.186-4.142 4.387-6.343-.523-4.566-3.643-7.022-6.785-10.078l-1.745-1.732c-1.837-1.82-3.685-3.63-5.533-5.44l-3.744-3.703A2741 2741 0 0 0 307 329l2.332-2.324q2.707-2.716 5.356-5.488C317 319 317 319 319 319l.773-1.734c1.358-2.508 2.947-4.399 4.852-6.516l1.914-2.14z"/><path fill="#BFE7F2" d="M315 338c5.043 2.236 8.444 6.037 12.313 9.875l2.283 2.184 2.142 2.12 1.97 1.93C335 356 335 356 334.802 358.149 334 360 334 360 332.437 361.437c-1.622 1.493-1.622 1.493-1.882 3.775.656 4.112 3.237 6.2 6.132 8.964l1.75 1.727a795 795 0 0 0 5.563 5.41 2832 2832 0 0 1 3.758 3.689Q352.36 389.52 357 394c-27.177 27.841-72.069 42.405-110 46 3.807-6.489 7.692-10.898 14-15l3-2c.547-2.854.547-2.854.625-6.062.292-5.855.292-5.855 1.375-6.938 2.016-.234 4.038-.413 6.063-.562l3.347-.254L278 409l1.125-3.5c1.738-5.24 3.683-10.397 5.698-15.536 1.508-3.91 2.51-7.573 3.24-11.714.628-2.32.628-2.32 1.937-4.25 5.051-2.542 10.334-4 16-4l.352-3.395c.612-4.876 1.765-9.548 3.023-14.293l.633-2.51c1.15-4.38 2.369-8.036 4.992-11.802"/><path fill="#F9D06B" d="M308 18c3.554.473 6.384 1.513 9.555 3.152.854.442 1.709.884 2.59 1.338l2.73 1.448 2.832 1.495C333.84 29.796 341.53 34.587 349 40l1.7 1.23c8.283 6.049 15.863 12.722 23.3 19.77-1.124 5.824-2.693 11.38-4.562 17l-.673 2.033c-1.636 4.838-1.636 4.838-2.765 5.967a84 84 0 0 1-4.305.332c-12.713.869-12.713.869-22.82 7.856-1.75 2.195-3.315 4.48-4.875 6.812q-1.544 2.176-3.098 4.348c-2.711 3.835-5.325 7.725-7.902 11.652-9.635-.964-9.635-.964-12-3-.999-4.591-.872-9.312-1-14l-.262-3.36c-.429-7.814 1.309-13.004 5.047-19.863 1.35-2.577 1.35-2.577 1.211-4.773-.995-2.277-.995-2.277-3.55-4.508-3.89-4.44-2.762-9.87-2.571-15.433.211-8.132.211-8.132-3.3-15.122C303.75 35.24 301.107 34.07 298 33c-2-2-2-2-2.195-4.164l.07-2.461.055-2.477L296 22c3.64-1.985 6.893-2.458 11-3z"/><path fill="#2D3A4C" d="M432 384c1.739 1.285 1.739 1.285 3 3 .044 1.98.044 1.98-.254 4.188-.118 3.984.54 5.786 3.177 8.777a177 177 0 0 0 4.145 4.03l2.276 2.25c2.48 2.444 4.99 4.854 7.5 7.267q2.592 2.545 5.179 5.097c4.538 4.47 9.1 8.916 13.671 13.354q10.98 10.662 21.888 21.4c2.546 2.496 5.111 4.973 7.678 7.448l4.672 4.582 2.181 2.074c4.758 4.723 4.758 4.723 5.418 8.869-.634 3.18-1.605 4.53-3.843 6.851l-1.864 1.981L505 487l-1.418 1.8c-1.582 1.2-1.582 1.2-3.96.965-2.882-.841-4.052-1.7-6.146-3.808l-1.985-1.968-2.127-2.17-2.278-2.277a1833 1833 0 0 1-7.418-7.483q-2.577-2.589-5.158-5.175a6016 6016 0 0 1-13.548-13.647c-4.604-4.645-9.22-9.28-13.835-13.915A16634 16634 0 0 1 420 412c2.27-4.94 6.013-7.922 9.98-11.562 2.225-2.174 2.225-2.174 2.075-4.493-1.358-2.504-3.03-4.134-5.118-6.07A91 91 0 0 1 423 386v-2c3.15-1.575 5.635-.708 9 0"/><path fill="#E97361" d="M408 371c3.86 1.793 6.314 4.08 9.313 7.125l1.462 1.482a202 202 0 0 1 9.788 10.737c1.407 1.709 1.407 1.709 3.187 3.125C433 395 433 395 433.004 396.855c-1.46 3.117-3.605 5.064-6.067 7.457l-2.785 2.739c-2.273 2.164-4.615 4.228-6.992 6.277-4.422 3.84-8.545 7.945-12.66 12.11l-2.203 2.216q-2.652 2.67-5.297 5.346c-2.978-1.424-4.98-2.779-7.25-5.187A115 115 0 0 0 382 420.5c-3.856-3.322-7.453-6.853-11-10.5 1.39-3.137 3.01-5.255 5.44-7.667l2.123-2.122 2.289-2.258 2.345-2.337c2.471-2.46 4.95-4.913 7.428-7.366l5.031-5.004Q401.821 377.116 408 371"/><path fill="#2C394B" d="M363 330c2.132-.34 2.132-.34 5 0a57 57 0 0 1 5.895 5.441l1.67 1.699a731 731 0 0 1 5.248 5.423q3.441 3.538 6.894 7.066l1.671 1.716c3.542 3.618 7.185 7.045 11.05 10.32 1.958 1.663 3.775 3.438 5.572 5.272l1.75 1.778L409 370c-4.408 5.29-9.076 10.188-14 15-3.316-1.446-5.492-3.248-8.034-5.807l-2.365-2.366-2.523-2.554-2.606-2.614a4508 4508 0 0 1-8.222-8.284l-5.582-5.61A8832 8832 0 0 1 352 344c1.592-3.382 3.348-5.534 6.063-8.125 2.853-2.654 2.853-2.654 4.937-5.875"/><path fill="#77D2BD" d="M256.438 80.438 259 82l1.91.91c6.359 3.316 8.494 7.595 11.09 14.09l.79 1.877c3.232 7.69 6.12 14.625 5.21 23.123l-3.148-1.023-4.227-1.352-2.059-.672c-10.141-3.223-20.09-4.386-30.691-5.078l-3.766-.262q-4.554-.315-9.109-.613c3.925-6.23 7.862-12.432 12.125-18.437l1.223-1.772c2.53-3.568 5.107-6.239 8.652-8.791l1.844-1.336c4.449-2.791 4.449-2.791 7.594-2.227"/><path fill="#2D394B" d="M328 307c5.783 4.803 11.206 9.924 16.555 15.205q1.458 1.434 2.933 2.85a458 458 0 0 1 4.262 4.172l2.547 2.486C356 334 356 334 355.954 336.078c-1.086 2.187-2.286 3.686-3.974 5.453l-1.85 1.957-1.942 2.012-1.909 2.012A423 423 0 0 1 337 357c-4.196-1.638-6.987-4.733-10.078-7.883l-1.732-1.74q-2.725-2.746-5.44-5.502l-3.703-3.73A4078 4078 0 0 1 307 329l2.332-2.324q2.707-2.716 5.356-5.488C317 319 317 319 319 319l.773-1.734c1.358-2.508 2.947-4.399 4.852-6.516l1.914-2.14z"/><path fill="#F1BE4D" d="M308 18c3.554.473 6.384 1.513 9.555 3.152.854.442 1.709.884 2.59 1.338l2.73 1.448 2.832 1.495C333.84 29.796 341.53 34.587 349 40l1.7 1.23c8.283 6.049 15.863 12.722 23.3 19.77-1.167 5.929-2.755 11.388-5 17-3.695-3.017-7.067-5.961-10.125-9.625C342.147 48.865 319.621 34.698 297 23v-2l2.152-.402 2.786-.535 2.777-.528c2.238-.312 2.238-.312 3.285-1.535"/><path fill="#5EB8D7" d="M346 385c3.215 1.408 5.322 3.103 7.75 5.625l1.86 1.914L357 394c-26.308 28.144-72.651 42.46-110 46 1.51-3.188 2.344-4.723 5.652-6.117l3.286-.758C289.688 424.36 319.905 408.06 346 385"/><path fill="#D74E41" d="M408 371c3.912 1.594 6.372 4.139 9.313 7.125l1.462 1.482a202 202 0 0 1 9.788 10.737c1.407 1.709 1.407 1.709 3.187 3.125C433 395 433 395 433.02 396.824c-1.508 3.217-3.846 5.515-6.332 7.988l-1.475 1.561c-1.451 1.459-1.451 1.459-4.213 3.627-4.233-.101-6.66-3.278-9.422-6.129l-1.53-1.543a1032 1032 0 0 1-4.798-4.89l-3.27-3.311A2134 2134 0 0 1 394 386c3.331-3.954 6.684-7.81 10.375-11.437l2.086-2.06z"/><path fill="#62BAD8" d="M213 0c33.025-.932 64.569 3.491 95 17l-1 3c-10.11 3.713-16.655.496-25.816-3.7C259.674 6.502 236.346 3.05 213 1z"/><path fill="#59B6D6" d="M455.438 82.688C460.648 84.607 462.5 88.202 465 93c2.04 4.46 2.253 7.169 1 12-2.222 2.55-3.608 2.933-6.937 3.5-4.28-.699-5.398-2.084-8.063-5.5-2.7-4.352-4.933-8.193-5.125-13.375 2.039-4.758 4.419-6.47 9.563-6.937M337 456c2.438 1.563 2.438 1.563 4 4 .689 4.21.583 6.164-1.875 9.688-5.28 3.907-10.443 6.27-17.062 6.375C319 475 319 475 317 472.875c-1.365-3.923-1.341-5.922 0-9.875 2.438-2.155 5.086-3.58 8-5l2.563-1.312c3.328-.94 5.998-1.063 9.437-.688m147-179c2.375 1.063 2.375 1.063 4 3 1.925 6.16.488 12.134-2 18-1.886 2.325-3.097 3.744-6 4.566-3.749-.007-5.491-.181-8.562-2.503-2.608-5.556-.996-10.824.937-16.438 2.776-6.192 4.748-7.349 11.625-6.625M253.309 477.813c3.773-.199 5.966-.284 9.191 1.812 1.833 2.902 2.357 4.95 2.5 8.375-.791 2.59-1.48 3.634-3.687 5.188-3.112 1.093-6.03 1.484-9.313 1.812l-2.055.234c-3.91.266-5.724-.078-8.945-2.359-2-2.875-2-2.875-2.625-5.875.854-4.1 2.285-5.512 5.625-8 3.15-.787 6.09-.926 9.309-1.187m48.691-5.75c2 2.937 2 2.937 2.125 6.5-1.348 4.12-2.414 5.259-6.125 7.437-5.167 1.95-9.557 2.614-15 2-3.062-2.062-3.062-2.062-5-5-.147-4.2.252-6.161 3.063-9.312 6.278-3.607 14.628-5.963 20.937-1.625M133 464c9.846 2.99 9.846 2.99 13 7 .653 4.41.513 6.29-2.125 9.938-3.453 2.477-4.71 2.417-8.875 2.062-3.14-.988-3.14-.988-6.25-2.312l-3.14-1.301C123 478 123 478 121 475c-.419-3.837-.546-6.112 1.5-9.437 3.54-2.213 6.505-2.25 10.5-1.563m321-113c2.438 1.563 2.438 1.563 4 4 1.197 5.987-1.21 9.79-4.2 14.766-2.051 2.546-3.857 3.829-6.8 5.234-3.625 0-3.625 0-7-1-2.601-2.764-2.977-4.411-3.125-8.187 1.585-5.373 4.565-9.521 8.125-13.813 3.092-1.546 5.594-1.294 9-1m18-36c2.438 1.5 2.438 1.5 4 4 1.072 6.906-1.126 12.26-5 18-2.88 2.66-3.501 3.018-7.562 2.875-4.72-1.201-4.72-1.201-6.438-3.875-1.985-6.71 1.506-12.185 4.625-18.062 2.714-3.825 5.969-3.318 10.375-2.938M211.563 479.563l3.94.066c3.129.332 4.919.652 7.497 2.371 2.082 2.676 1.996 4.118 1.875 7.563C224 493 224 493 222.41 494.69c-3.36 1.825-6.044 1.707-9.847 1.684l-3.934.023c-3.756-.412-5.658-1.12-8.629-3.398-1.444-2.889-1.377-4.796-1-8 3.804-4.957 6.422-5.627 12.563-5.437M372 437c2.5 1.625 2.5 1.625 4 4 .787 4.022.26 5.59-1.937 9.063-3.393 3.632-7.413 6.201-12.063 7.937-3.945.064-5.91-.085-8.937-2.625-1.565-3.496-1.717-5.581-1.063-9.375 2.034-2.45 4.394-4.194 7-6l2.438-1.875c3.83-1.682 6.377-1.59 10.562-1.125m119-199c2.313 1.438 2.313 1.438 4 4 .948 6.61.264 14.187-3.187 20-3.084 1.701-5.375 1.474-8.813 1-2.723-2.062-2.723-2.062-5-5-.41-3.594-.41-3.594-.062-7.5l.277-3.906c.862-3.946 1.932-5.778 4.785-8.594 3.382-1.127 4.648-1.063 8 0m-5-80c3.424 2.128 4.307 4.485 5.25 8.25.938 5.13 1.878 10.307-.375 15.188-2.637 2.197-4.46 2.494-7.875 2.562-3.53-1.604-4.828-2.742-7-6-1.534-5.927-2.596-13.255.563-18.687 3.403-1.833 5.628-1.857 9.437-1.313m-9-37c3.59 5.9 6.212 13.062 5 20-2.062 2.563-2.062 2.563-5 4-4.113.072-6.153-.247-9.25-3-3.029-5.192-4.82-9.815-4.625-15.875.867-3.095 1.237-4.366 3.875-6.125 3.736-1.675 6.477-.908 10 1M180.11 477.094c2.634 1.263 3.82 2.153 4.89 4.906-.121 3.457-.31 5.964-2.25 8.875-3.25 2.089-6.153 2.197-9.941 1.742l-3.371-.742-3.38-.695c-3.67-1.416-5.019-2.85-7.058-6.18 0-3.713.204-5.972 2.5-8.937 6.109-2.597 12.578-1.247 18.61 1.03M98 448c9.324 4.649 9.324 4.649 11 8 .262 3.543.41 6.133-1.125 9.375-2.605 2.258-4.451 2.388-7.875 2.625-3.105-1.11-3.105-1.11-6.187-2.75l-3.106-1.61c-2.343-1.42-4.063-2.469-5.707-4.64-.393-3.096-.618-5.042 0-8 3.64-4.663 7.667-4.775 13-3m395-249c3.204 4.08 3.432 7.46 3.438 12.563l.058 3.94C496 219 496 219 494.226 221.439c-3.64 2.554-5.85 2.048-10.226 1.562-2.674-1.812-2.96-2.878-4-6-.173-2.496-.277-4.94-.312-7.437l-.114-3.997C480 202 480 202 481.832 199.59c4.2-3.08 6.567-2.699 11.168-.59"/><path fill="#59B5D6" d="M62.813 427.313C67.483 428.32 70.767 430.49 74 434c1.123 3.618 1.388 5.695.313 9.313-1.684 2.164-2.665 2.9-5.313 3.687-6.103-.113-8.796-1.896-13-6-1.444-2.889-1.377-4.796-1-8 2.377-3.216 3.902-4.732 7.813-5.687"/><path fill="#59B6D6" d="M438 54c3.784 2.376 6.157 4.927 8 9 .685 4.11.352 5.498-2.062 8.938C441 74 441 74 437.5 74.125c-4.787-1.539-6.961-4.027-9.875-8-.977-3.323-.47-5.805.375-9.125 2.924-3.357 5.694-3.615 10-3"/><path fill="#5AB3D2" d="M432 384c1.938 1.063 1.938 1.063 3 3 .236 2.719.135 5.26 0 8-3 0-3 0-5.262-1.898l-2.425-2.477-2.45-2.46C423 386 423 386 423 384c3.15-1.575 5.635-.708 9 0"/><path fill="#F1C052" d="M249 436c-.75 1.938-.75 1.938-2 4-3.734 1.391-7.807 1.335-11.75 1.563l-2.113.13q-2.569.158-5.137.307v-3q3.842-.758 7.688-1.5l2.185-.434c3.765-.722 7.272-1.248 11.127-1.066"/><path fill="#59B4D3" d="M385 423q1.659 1.404 3.313 2.813l1.863 1.582c3.344 2.942 3.344 2.942 4.824 4.605v2c-3 1-3 1-5.5.313-2.843-1.493-4.063-2.439-5.5-5.313.313-3.25.313-3.25 1-6"/></svg>